<?xml version="1.0" standalone="no"?>
<!DOCTYPE svg PUBLIC "-//W3C//DTD SVG 20010904//EN"
 "http://www.w3.org/TR/2001/REC-SVG-20010904/DTD/svg10.dtd">
<svg version="1.0" xmlns="http://www.w3.org/2000/svg"
 width="960.000000pt" height="960.000000pt" viewBox="0 0 960.000000 960.000000"
 preserveAspectRatio="xMidYMid meet">
<metadata>
Created by potrace 1.14, written by Peter Selinger 2001-2017
</metadata>
<g transform="translate(0.000000,960.000000) scale(0.100000,-0.100000)"
fill="#000000" stroke="none">
<path d="M4728 7921 l-77 -77 -93 1 c-138 1 -128 10 -128 -115 l0 -108 -75
-75 c-41 -41 -75 -77 -75 -81 0 -3 34 -40 75 -81 l75 -76 0 -109 0 -110 38 -1
c20 0 71 -1 112 -2 l75 -1 77 -77 77 -77 79 78 79 79 79 -1 c44 0 93 1 109 1
l31 1 2 113 3 112 57 56 c105 103 104 85 16 174 l-76 77 -1 109 c0 60 -3 109
-6 110 -3 0 -54 2 -113 3 l-106 1 -59 60 c-104 105 -87 104 -175 16z m157 -31
l68 -69 99 0 c54 0 102 -2 106 -5 4 -3 7 -49 6 -104 l-1 -99 74 -74 73 -73
-72 -73 -73 -74 -2 -97 c-1 -53 -2 -100 -2 -104 -1 -5 -47 -8 -103 -8 l-103 0
-72 -72 -73 -72 -57 54 c-31 30 -63 63 -71 73 -11 14 -30 17 -121 17 l-107 0
0 105 -1 105 -39 39 c-21 21 -54 54 -72 74 l-34 35 74 74 73 74 -1 102 -2 102
87 1 c125 1 121 0 196 72 38 37 71 67 75 67 3 0 37 -31 75 -70z"/>
<path d="M4739 7865 l-65 -65 -99 -3 -99 -2 0 -97 -1 -98 -67 -67 -68 -68 68
-68 67 -68 2 -92 c0 -50 2 -95 2 -98 1 -3 45 -7 98 -7 l98 -2 67 -67 68 -67
68 67 68 68 97 0 97 0 0 97 0 98 70 69 70 69 -71 72 c-44 44 -70 78 -69 90 1
10 2 53 1 95 l-1 77 -97 0 -97 1 -66 66 c-36 36 -68 65 -71 65 -3 0 -34 -29
-70 -65z"/>
<path d="M3575 7565 c-38 -6 -80 -17 -92 -23 -20 -11 -23 -10 -23 3 0 12 -6
15 -22 9 -34 -10 -128 -59 -170 -87 -31 -22 -37 -23 -43 -10 -5 14 -9 12 -31
-8 -48 -45 -138 -161 -159 -206 -22 -45 -22 -45 -38 -23 l-16 23 -63 -43 c-95
-65 -163 -125 -196 -176 l-31 -46 -3 42 -3 41 -44 -68 c-38 -58 -71 -126 -100
-207 -6 -17 -8 -17 -23 -3 -21 21 -28 12 -28 -37 0 -44 -13 -70 -66 -126 -17
-19 -34 -44 -36 -55 -3 -16 -11 -20 -39 -18 -34 1 -37 -1 -48 -39 -7 -22 -13
-57 -13 -79 0 -36 -3 -39 -28 -39 -25 0 -33 -9 -68 -77 -22 -43 -46 -97 -52
-120 -11 -36 -16 -41 -31 -33 -27 15 -36 12 -48 -18 -14 -34 -19 -104 -11
-159 4 -24 6 -43 4 -43 -1 0 -14 4 -28 10 -21 8 -27 6 -37 -11 -6 -11 -9 -40
-8 -64 3 -46 -16 -81 -89 -165 -17 -19 -29 -37 -27 -41 3 -3 -4 -37 -14 -75
-17 -60 -43 -177 -57 -251 -2 -13 -6 -35 -9 -50 -18 -97 -25 -341 -11 -413 11
-60 36 -128 57 -154 28 -36 33 -66 10 -66 -29 0 -43 -25 -45 -82 -2 -55 15
-163 33 -209 8 -23 7 -28 -9 -32 -17 -4 -18 -12 -14 -63 8 -102 24 -173 55
-249 16 -40 29 -78 29 -84 0 -21 85 -228 137 -335 102 -207 227 -403 374 -586
48 -60 86 -111 84 -111 -14 -4 -26 -7 -34 -8 -20 -2 12 -62 57 -107 l47 -45
-25 -19 c-21 -16 -22 -20 -10 -35 17 -21 72 -49 128 -66 36 -10 53 -25 100
-87 32 -41 74 -93 95 -115 20 -23 35 -48 32 -54 -3 -7 -8 -19 -11 -27 -8 -21
95 -88 141 -91 6 0 9 -14 7 -31 -3 -29 0 -31 43 -41 24 -6 73 -10 108 -9 l63
1 66 -80 c59 -71 65 -82 52 -96 -18 -20 -18 -29 4 -46 16 -12 73 -40 90 -44 4
0 14 -5 22 -9 19 -10 118 -23 183 -23 44 0 47 -1 47 -26 1 -14 6 -36 13 -48
l12 -23 29 25 c42 36 66 33 66 -9 0 -57 39 -66 108 -26 43 26 52 25 52 -2 0
-56 9 -65 78 -82 246 -59 559 -98 568 -72 1 6 6 28 9 49 7 52 29 91 64 116 82
58 176 -24 180 -158 l1 -23 124 6 c69 4 135 9 148 11 28 4 136 17 143 16 4 0
111 48 191 85 21 10 42 12 70 7 71 -14 225 -8 274 11 25 10 104 36 175 57 72
22 136 41 144 44 9 4 7 10 -10 25 l-24 19 35 12 c19 7 69 30 110 52 41 23 135
71 209 108 131 66 134 68 108 80 -26 12 -37 29 -18 29 12 0 260 188 291 220 3
3 29 24 58 47 l53 42 -32 3 -32 3 44 32 c68 48 289 276 289 296 0 3 -14 8 -30
12 l-30 7 53 61 c68 78 167 212 167 226 0 6 5 11 10 11 6 0 10 5 10 11 0 6 9
23 20 39 20 29 150 284 150 295 0 4 6 21 14 38 14 31 46 116 107 284 31 84
129 410 129 427 0 6 -5 5 -12 -2 -21 -21 -26 -13 -18 31 8 40 16 89 26 167 3
19 7 46 9 60 8 46 15 145 9 133 -20 -45 -25 8 -21 256 3 238 0 322 -18 419
-16 92 -30 142 -47 177 -10 22 -28 90 -38 150 -21 116 -24 130 -40 210 -6 28
-12 59 -14 70 -2 11 -12 53 -21 93 -17 72 -17 72 -34 50 l-18 -22 -20 45 c-11
24 -28 65 -39 91 -10 27 -22 48 -26 48 -5 0 -8 6 -8 13 1 17 -133 287 -142
287 -5 0 -8 -9 -8 -20 0 -35 -15 -22 -48 43 -62 122 -167 303 -181 311 -5 3
-12 -6 -15 -20 -7 -25 -8 -24 -31 23 -38 75 -220 281 -342 386 l-21 19 4 -44
c5 -36 3 -40 -7 -23 -6 11 -30 37 -53 57 -52 48 -233 178 -246 178 -5 0 -10 4
-10 8 0 5 -12 14 -26 21 -24 11 -26 10 -21 -9 5 -19 -7 -29 -15 -12 -5 12
-108 58 -193 87 -98 33 -242 75 -256 75 -11 0 48 -78 89 -117 13 -13 29 -23
37 -23 8 0 16 -4 19 -9 3 -4 -24 0 -60 10 -54 15 -93 17 -222 14 -86 -2 -166
-6 -177 -8 -11 -3 -51 -8 -90 -11 -110 -11 -110 -11 -66 -56 21 -22 48 -64 61
-97 60 -156 115 -263 213 -415 21 -32 33 -58 28 -58 -5 0 -12 4 -16 9 -14 24
-278 111 -390 130 -71 11 -215 23 -215 17 0 -2 33 -17 73 -32 475 -179 820
-546 971 -1034 50 -163 66 -266 66 -424 0 -178 -37 -366 -103 -526 -51 -123
-64 -141 -101 -137 -17 2 -47 11 -67 19 -64 28 -87 33 -178 44 -31 3 -63 10
-71 14 -8 4 -49 10 -90 13 -41 3 -76 6 -77 6 -2 1 -3 38 -3 84 0 104 -5 144
-31 220 -79 237 -269 401 -534 464 -40 9 -220 10 -259 1 -23 -6 -51 -12 -64
-14 -102 -20 -261 -117 -347 -213 -48 -53 -110 -161 -133 -231 -25 -76 -32
-117 -36 -207 l-3 -66 -44 -26 c-40 -24 -52 -26 -134 -23 -49 1 -112 -2 -140
-8 -65 -13 -99 -18 -161 -25 l-50 -5 -31 67 c-34 76 -51 119 -58 148 -27 111
-46 210 -51 260 -6 73 -6 269 1 310 67 388 206 666 460 921 165 165 331 273
563 365 42 17 79 33 81 35 6 5 -143 -4 -179 -11 -14 -3 -41 -8 -60 -11 -71
-12 -240 -63 -283 -86 -13 -7 -19 -4 -24 9 -3 10 -13 26 -21 35 -14 16 -12 21
16 48 18 17 32 33 32 36 0 4 -9 21 -20 39 l-20 33 22 15 c13 8 34 36 47 61 23
45 23 47 5 67 -12 13 -15 23 -7 27 14 9 47 83 66 149 l15 51 -67 12 c-81 13
-83 15 -102 65 -18 48 -36 53 -92 26 -54 -26 -53 -26 -60 7 -11 48 -22 57 -48
38 -28 -19 -50 -21 -46 -3 3 16 -47 17 -138 2z m2535 -105 c0 -5 -2 -10 -4
-10 -3 0 -8 5 -11 10 -3 6 -1 10 4 10 6 0 11 -4 11 -10z m55 -20 c3 -6 -1 -7
-9 -4 -18 7 -21 14 -7 14 6 0 13 -4 16 -10z m280 -148 c-3 -3 -11 0 -18 7 -9
10 -8 11 6 5 10 -3 15 -9 12 -12z m1030 -2060 c-3 -3 -11 0 -18 7 -9 10 -8 11
6 5 10 -3 15 -9 12 -12z m-1830 -2692 c10 -11 16 -20 13 -20 -3 0 -13 9 -23
20 -10 11 -16 20 -13 20 3 0 13 -9 23 -20z"/>
<path d="M4716 6823 c1 -32 5 -114 8 -183 3 -69 8 -183 11 -255 5 -126 11
-276 20 -459 7 -143 -5 -101 -20 69 -6 71 -9 104 -20 250 -3 44 -8 94 -10 110
-2 17 -6 75 -10 130 -4 55 -8 111 -10 125 -2 14 -7 66 -11 115 -9 122 -10 135
-17 141 -7 8 -29 -5 -23 -14 2 -4 7 -47 11 -97 4 -49 8 -106 10 -125 2 -19 6
-80 10 -135 3 -55 8 -111 10 -125 4 -23 9 -80 20 -230 2 -30 6 -75 9 -100 3
-25 8 -81 11 -125 4 -44 9 -83 11 -87 3 -5 1 -8 -4 -8 -8 0 -17 63 -48 320 -8
62 -34 274 -39 310 -3 19 -7 53 -10 75 -2 22 -9 78 -15 125 -6 47 -13 103 -16
125 -8 67 -10 76 -20 75 -13 -1 -6 -139 11 -230 2 -14 7 -50 11 -80 11 -96 13
-114 18 -145 2 -16 7 -59 11 -95 4 -36 9 -74 11 -85 4 -22 10 -68 19 -145 4
-30 8 -66 10 -80 2 -14 7 -52 10 -85 4 -33 9 -69 11 -80 4 -16 3 -17 -4 -5 -6
8 -13 35 -16 60 -6 43 -10 71 -21 135 -3 17 -8 46 -11 65 -3 19 -12 71 -20
115 -8 44 -23 136 -34 205 -22 139 -26 163 -40 235 -5 28 -12 70 -15 95 -3 25
-8 54 -10 65 -2 11 -4 25 -4 31 -1 6 -8 11 -16 11 -16 0 -16 -4 0 -97 2 -14 9
-54 15 -90 5 -36 12 -77 15 -92 10 -55 14 -82 21 -127 4 -25 8 -55 11 -66 3
-17 12 -71 28 -167 3 -16 8 -43 11 -60 44 -256 53 -313 49 -316 -2 -2 -6 7
-10 22 -3 14 -8 38 -12 54 -3 15 -6 30 -5 33 1 4 -3 22 -9 40 -5 19 -12 48
-15 64 -3 17 -11 59 -19 95 -29 135 -66 307 -70 331 -3 13 -7 35 -10 49 -3 14
-7 34 -9 45 -56 266 -53 255 -73 255 -10 0 -13 -5 -8 -17 4 -10 8 -29 11 -43
4 -30 2 -21 55 -264 22 -105 43 -202 45 -216 3 -14 16 -74 29 -135 21 -98 38
-180 51 -240 22 -108 33 -158 38 -162 3 -3 16 -3 30 1 18 4 24 11 20 24 -5 14
-4 15 5 2 10 -15 61 -25 61 -12 0 4 30 5 68 1 37 -3 76 -4 86 -3 10 2 24 0 30
-4 25 -15 56 -13 57 5 0 10 2 25 4 33 10 41 94 439 99 464 3 15 14 69 25 120
81 361 100 478 75 453 -5 -4 -27 -89 -40 -152 -2 -11 -11 -54 -19 -95 -19 -95
-18 -89 -54 -260 -17 -80 -34 -158 -37 -175 -2 -16 -9 -46 -14 -65 -5 -19 -12
-48 -14 -65 -3 -16 -8 -39 -10 -50 -3 -11 -11 -51 -19 -88 -8 -37 -18 -71 -22
-75 -4 -4 -4 4 -1 18 3 14 17 93 31 175 14 83 28 161 30 175 3 14 8 43 11 65
3 22 12 74 19 115 8 41 17 92 20 113 10 74 17 112 20 117 2 3 7 33 10 65 4 33
9 63 11 66 1 3 6 28 10 55 3 27 8 51 9 54 6 9 -13 35 -20 28 -3 -3 -8 -18 -11
-34 -2 -16 -7 -40 -9 -54 -6 -26 -8 -42 -21 -125 -4 -27 -8 -54 -10 -60 -1 -5
-5 -28 -9 -50 -3 -22 -13 -78 -20 -125 -8 -47 -17 -102 -21 -124 -3 -21 -8
-48 -10 -60 -3 -11 -7 -36 -10 -55 -7 -50 -14 -94 -19 -111 -2 -8 -7 -37 -10
-65 -4 -27 -13 -79 -20 -115 l-14 -65 5 59 c3 32 7 68 9 80 2 11 6 44 9 71 6
49 30 240 41 320 3 22 16 135 31 250 14 116 27 224 30 242 5 29 -9 53 -19 35
-6 -9 -17 -79 -23 -142 -2 -25 -6 -58 -9 -75 -3 -16 -7 -50 -10 -74 -2 -24 -7
-60 -9 -80 -3 -20 -8 -58 -11 -86 -3 -27 -7 -59 -9 -70 -2 -11 -7 -49 -11 -85
-4 -36 -9 -73 -11 -83 -2 -10 -6 -48 -10 -85 -3 -36 -8 -75 -10 -87 -2 -11 -7
-45 -10 -75 -7 -71 -14 -113 -20 -119 -3 -3 -3 15 0 39 3 25 8 77 11 115 17
203 23 266 30 360 3 39 7 93 10 120 2 28 7 86 10 130 3 44 8 96 10 115 12 101
15 200 6 200 -16 0 -18 -10 -25 -100 -11 -131 -17 -201 -21 -250 -3 -25 -7
-74 -10 -110 -3 -36 -8 -92 -11 -125 -3 -33 -7 -90 -9 -126 -3 -36 -7 -85 -9
-110 -2 -24 -8 -87 -11 -139 -4 -52 -11 -102 -17 -110 -7 -12 -8 -11 -4 5 3
11 7 85 11 165 3 80 7 197 10 260 3 63 7 165 10 225 14 343 18 411 22 418 3 5
-3 7 -13 5 -12 -2 -20 -13 -20 -28 -2 -27 -13 -296 -19 -455 -12 -318 -26
-579 -30 -583 -2 -2 -2 238 -2 532 2 483 0 536 -14 536 -14 0 -16 -55 -15
-554 1 -305 -1 -552 -3 -550 -3 2 -6 32 -7 67 -3 123 -16 433 -19 492 -2 33
-7 143 -10 245 -7 173 -11 257 -14 288 0 6 -7 12 -14 12 -9 0 -12 -16 -11 -57z
m41 -1025 c-3 -7 -5 -2 -5 12 0 14 2 19 5 13 2 -7 2 -19 0 -25z m-97 8 c0 -3
-4 -8 -10 -11 -5 -3 -10 -1 -10 4 0 6 5 11 10 11 6 0 10 -2 10 -4z m70 -24 c0
-15 -2 -15 -10 -2 -13 20 -13 33 0 25 6 -3 10 -14 10 -23z m210 4 c0 -3 -4 -8
-10 -11 -5 -3 -10 -1 -10 4 0 6 5 11 10 11 6 0 10 -2 10 -4z"/>
<path d="M4252 6714 c6 -31 81 -276 233 -759 92 -293 84 -286 -25 20 -39 110
-82 229 -95 265 -13 36 -54 153 -93 259 -38 107 -74 197 -80 199 -24 8 -18
-10 123 -398 13 -36 60 -168 105 -295 45 -126 88 -246 96 -265 8 -19 11 -30 5
-25 -5 6 -67 152 -136 325 -196 488 -248 615 -252 619 -2 3 -8 0 -13 -5 -9 -9
29 -118 86 -241 8 -17 14 -36 14 -42 0 -6 5 -19 10 -29 20 -34 240 -585 235
-590 -2 -3 -9 6 -14 19 -14 37 -337 750 -355 784 -9 17 -16 36 -16 43 0 6 -4
12 -9 12 -22 0 -20 -23 7 -82 16 -35 73 -160 127 -278 53 -118 113 -248 131
-288 19 -41 34 -76 34 -78 0 -2 20 -45 45 -95 25 -51 43 -94 41 -96 -2 -3 -73
132 -156 299 -197 392 -279 551 -289 561 -49 50 91 -244 389 -819 16 -32 30
-63 30 -69 0 -5 -6 1 -13 15 -22 42 -330 594 -391 700 -17 30 -40 72 -51 92
-18 35 -35 42 -35 14 0 -8 36 -77 80 -155 44 -77 80 -143 80 -145 0 -2 17 -33
38 -67 21 -35 54 -93 74 -129 34 -64 140 -251 181 -320 11 -19 15 -30 9 -25
-8 8 -237 374 -311 497 -72 122 -184 299 -191 303 -4 3 -10 -1 -13 -8 -2 -6
26 -60 62 -118 112 -180 184 -297 228 -367 23 -37 46 -73 49 -81 4 -8 32 -53
62 -100 30 -47 63 -101 74 -118 11 -18 22 -33 24 -33 17 0 83 44 77 53 -3 6
-1 7 5 3 6 -4 22 -1 34 6 13 7 25 13 28 13 54 13 58 17 50 43 -4 15 -19 65
-33 112 -14 47 -60 195 -102 330 -43 135 -79 252 -81 260 -17 75 -94 295 -104
298 -9 3 -11 -4 -8 -24z m237 -1004 c11 -24 11 -24 -3 -6 -9 11 -16 24 -16 30
0 12 5 7 19 -24z"/>
<path d="M5278 6523 c-63 -205 -121 -394 -189 -613 -17 -52 -32 -102 -34 -110
-2 -8 -9 -31 -14 -50 -6 -19 -11 -36 -11 -37 0 -2 9 -3 20 -3 11 0 20 -5 20
-11 0 -8 6 -7 17 2 9 8 14 9 10 3 -3 -6 5 -17 19 -25 22 -11 27 -11 34 1 5 8
55 116 111 240 56 124 119 261 139 305 21 44 59 127 85 185 26 58 56 122 66
144 17 37 18 56 0 56 -4 0 -29 -48 -56 -107 -26 -60 -60 -135 -75 -168 -26
-57 -40 -87 -112 -245 -17 -36 -49 -108 -73 -160 -77 -174 -108 -240 -112
-237 -2 3 45 121 92 232 7 17 57 138 110 270 53 132 102 254 109 270 47 107
69 176 58 187 -8 8 -13 6 -18 -8 -9 -26 -252 -630 -270 -674 -25 -59 -31 -72
-64 -158 -18 -45 -37 -85 -42 -88 -7 -4 -7 0 0 12 5 11 58 154 117 319 114
321 153 431 162 455 3 8 7 20 8 25 2 6 15 41 29 79 18 47 23 73 16 80 -5 5
-11 8 -13 5 -4 -4 -117 -316 -122 -334 -1 -5 -5 -17 -8 -25 -4 -8 -15 -40 -25
-70 -16 -46 -151 -426 -167 -469 -3 -8 -8 -11 -11 -8 -3 3 -1 14 5 25 5 10 12
30 15 43 3 13 33 112 67 219 33 107 69 222 79 255 10 33 41 133 69 222 56 176
57 183 38 183 -7 0 -38 -84 -79 -217z m-195 -763 c-3 -11 -10 -23 -16 -27 -5
-3 -8 -2 -5 3 3 5 8 17 11 27 9 24 16 22 10 -3z"/>
<path d="M5377 6110 l-227 -448 46 -27 c25 -15 55 -36 65 -46 18 -18 20 -18
34 -2 16 20 261 349 285 384 8 12 20 27 25 33 13 14 209 277 217 291 4 6 3 17
-1 23 -5 9 -54 -49 -142 -168 -74 -100 -159 -214 -189 -254 -30 -40 -64 -85
-75 -100 -11 -16 -32 -44 -47 -63 -16 -20 -28 -39 -28 -42 -1 -3 -17 -24 -36
-46 l-36 -40 29 45 c17 25 132 195 257 378 145 213 225 339 222 349 -7 18 -10
15 -116 -142 -41 -60 -114 -168 -163 -240 -49 -71 -125 -185 -170 -252 -45
-68 -85 -123 -89 -123 -4 0 10 26 31 58 126 186 462 745 457 759 -8 19 -1 28
-75 -92 -34 -55 -66 -107 -71 -115 -5 -8 -34 -55 -64 -105 -31 -49 -94 -151
-140 -225 -47 -74 -101 -163 -121 -197 -48 -84 -55 -80 -9 5 21 37 42 77 48
89 6 13 14 23 19 23 4 0 7 4 7 9 0 5 30 62 66 127 234 418 294 527 294 535 0
5 -6 9 -12 9 -7 0 -35 -42 -63 -93 -100 -185 -110 -202 -115 -207 -3 -3 -12
-18 -20 -35 -8 -16 -24 -46 -36 -65 -11 -19 -35 -62 -53 -95 -32 -59 -112
-202 -158 -280 -56 -98 -13 -4 96 208 93 181 291 571 309 608 1 4 -3 9 -11 12
-9 3 -81 -130 -240 -443z m-184 -445 c-3 -9 -8 -14 -10 -11 -3 3 -2 9 2 15 9
16 15 13 8 -4z"/>
<path d="M3838 6379 c-4 -11 193 -315 212 -329 4 -3 9 -9 11 -15 6 -16 187
-283 240 -356 51 -69 67 -102 26 -52 -13 15 -74 97 -137 182 -62 85 -117 159
-122 165 -5 6 -54 72 -109 146 -164 222 -158 215 -164 198 -6 -14 60 -107 285
-408 11 -14 71 -95 135 -180 63 -85 116 -155 118 -155 1 0 13 8 26 17 l23 17
-29 43 c-16 24 -81 120 -145 213 -63 94 -147 217 -186 275 -39 58 -75 110 -79
115 -5 6 -23 33 -41 62 -39 61 -58 79 -64 62z"/>
<path d="M3721 6197 c-7 -10 -6 -17 7 -28 15 -14 58 -62 177 -199 65 -75 149
-172 165 -190 8 -9 42 -48 75 -86 33 -37 77 -88 99 -111 21 -24 36 -43 33 -43
-5 0 -61 57 -169 171 -23 25 -115 121 -203 214 -88 92 -170 179 -183 193 -17
18 -26 22 -34 14 -8 -8 10 -33 63 -88 83 -86 99 -102 329 -343 161 -169 227
-246 118 -139 -30 29 -155 150 -277 268 -123 118 -230 221 -237 228 -15 14
-34 16 -34 3 0 -8 119 -127 333 -332 222 -212 310 -301 201 -204 -9 9 -90 79
-157 138 -12 10 -48 42 -81 72 -34 29 -72 63 -86 75 -14 12 -54 47 -90 79
-136 121 -138 122 -143 107 -3 -8 18 -34 55 -67 34 -29 66 -58 72 -64 6 -5 45
-39 86 -75 41 -36 77 -67 80 -70 3 -3 41 -37 85 -75 44 -39 98 -86 120 -107
22 -20 51 -46 65 -58 69 -59 -15 4 -146 111 -82 66 -164 133 -183 147 -76 60
-146 116 -151 122 -14 17 -104 80 -108 76 -13 -14 29 -51 302 -270 l296 -237
27 33 c16 18 40 45 55 61 l27 27 -32 37 c-18 21 -39 45 -47 53 -8 9 -34 39
-57 66 -22 27 -49 58 -60 69 -10 11 -47 54 -83 95 -36 41 -67 77 -70 80 -3 3
-50 57 -105 120 -129 150 -121 142 -134 127z"/>
<path d="M5860 6183 c-12 -15 -38 -46 -58 -68 -20 -22 -80 -90 -132 -150 -52
-61 -97 -112 -100 -115 -3 -3 -50 -57 -105 -120 -55 -63 -112 -128 -127 -145
-16 -16 -28 -33 -28 -37 0 -30 36 3 155 140 76 86 149 171 164 187 14 17 55
64 91 105 36 41 82 93 102 115 65 72 81 96 71 106 -7 7 -18 1 -33 -18z"/>
<path d="M5861 6084 c-28 -31 -125 -134 -215 -228 -89 -94 -195 -205 -234
-246 -65 -68 -85 -100 -64 -100 5 0 41 35 82 78 40 42 151 159 247 258 224
234 262 277 257 286 -10 15 -22 7 -73 -48z"/>
<path d="M5849 5977 c-58 -56 -192 -186 -299 -288 l-193 -186 21 -23 c24 -26
16 -30 101 48 20 18 54 47 75 65 21 18 51 43 66 57 28 26 149 135 186 167 12
10 48 41 80 69 32 29 70 60 83 71 13 11 22 27 20 37 -4 16 -5 16 -24 -1 -11
-10 -74 -65 -140 -123 -66 -57 -122 -107 -125 -110 -3 -3 -39 -34 -80 -70 -41
-36 -95 -83 -119 -105 -57 -52 -62 -57 -91 -79 -23 -17 43 47 436 429 79 76
121 124 116 132 -5 7 -43 -23 -113 -90z"/>
<path d="M5930 5879 c-41 -33 -84 -68 -95 -77 -11 -9 -40 -33 -65 -52 -68 -53
-81 -64 -99 -81 -9 -8 -50 -42 -91 -74 -41 -33 -77 -62 -80 -65 -3 -3 -26 -23
-52 -44 -52 -42 -56 -70 -5 -34 38 27 280 219 287 228 3 3 50 42 105 86 55 43
109 87 120 96 11 9 31 26 45 37 17 13 22 23 15 30 -7 6 -35 -11 -85 -50z"/>
<path d="M3580 5850 c0 -11 3 -20 8 -20 6 0 167 -115 207 -147 6 -5 92 -68
193 -142 235 -173 245 -186 25 -36 -48 33 -95 65 -105 70 -9 6 -89 59 -178
118 -89 60 -164 106 -167 103 -10 -10 7 -36 30 -45 12 -5 29 -16 36 -25 7 -9
18 -16 23 -16 6 0 27 -13 48 -30 21 -16 43 -30 49 -30 6 0 11 -4 11 -10 0 -5
5 -10 10 -10 10 0 44 -22 89 -57 9 -7 81 -55 160 -107 132 -88 145 -94 157
-78 7 9 14 22 14 28 0 7 -39 40 -87 75 -49 35 -90 66 -93 69 -3 3 -88 66 -190
140 -102 73 -194 142 -206 152 -26 23 -34 23 -34 -2z"/>
<path d="M5910 5784 c-63 -47 -132 -97 -153 -112 -21 -15 -48 -35 -60 -46 -12
-10 -42 -32 -67 -49 -100 -69 -205 -150 -205 -158 0 -18 22 -7 110 55 97 69
221 159 245 179 8 7 60 45 115 84 148 107 151 110 140 122 -8 8 -46 -15 -125
-75z"/>
<path d="M5745 5600 c-261 -174 -335 -232 -288 -223 9 2 585 383 602 399 3 3
0 9 -5 14 -6 6 -117 -62 -309 -190z"/>
<path d="M3540 5676 c0 -14 93 -70 365 -221 156 -87 221 -125 212 -125 -9 0
-368 181 -377 190 -7 7 -196 100 -204 100 -3 0 -6 -6 -6 -13 0 -13 42 -36 423
-229 87 -44 156 -82 153 -85 -3 -3 -11 -1 -18 4 -7 6 -51 27 -98 48 -76 34
-139 63 -305 140 -27 13 -72 33 -100 45 -27 12 -53 24 -57 27 -5 2 -8 -3 -8
-11 0 -14 47 -46 75 -52 6 -1 62 -27 125 -57 103 -49 223 -103 319 -144 18 -8
31 -16 29 -18 -4 -4 -123 41 -173 65 -11 5 -45 19 -75 30 -30 12 -68 27 -85
34 -16 8 -61 26 -100 40 -38 15 -78 31 -87 36 -25 14 -35 12 -35 -4 0 -8 21
-22 46 -32 25 -9 87 -34 136 -55 50 -21 155 -63 235 -95 80 -31 150 -60 156
-65 8 -6 17 5 28 34 9 23 16 48 16 55 0 7 5 12 10 12 6 0 10 4 10 9 0 9 -70
52 -220 134 -30 16 -59 33 -65 37 -5 4 -30 19 -55 32 -74 41 -121 68 -192 109
-74 44 -78 45 -78 25z"/>
<path d="M5890 5589 c-96 -56 -191 -110 -210 -121 -19 -10 -65 -36 -101 -56
-94 -52 -113 -67 -106 -79 5 -7 52 14 130 59 67 38 140 80 162 93 22 12 58 32
79 44 22 13 60 34 85 48 25 13 64 35 86 49 22 13 46 27 53 30 13 7 17 34 5 34
-5 0 -87 -46 -183 -101z"/>
<path d="M6025 5596 c-22 -13 -148 -78 -280 -145 -255 -130 -268 -138 -259
-152 7 -13 604 292 604 309 0 17 -18 14 -65 -12z"/>
<path d="M6060 5545 c-14 -8 -110 -53 -215 -100 -315 -143 -345 -158 -345
-172 0 -7 1 -13 3 -13 4 0 193 85 302 135 87 40 131 60 217 99 59 26 76 39 72
50 -3 9 -7 16 -8 16 0 0 -12 -7 -26 -15z"/>
<path d="M6000 5453 c-47 -19 -98 -41 -115 -48 -16 -7 -100 -41 -185 -75 -177
-71 -190 -77 -190 -90 0 -6 8 -10 18 -11 10 0 12 -3 5 -6 -19 -7 -16 -23 5
-23 13 0 14 -2 3 -9 -18 -12 -5 -32 17 -24 13 4 13 2 -3 -10 -11 -8 -17 -18
-13 -22 5 -6 127 19 198 40 8 2 91 23 185 47 123 31 171 48 173 59 2 13 -24 9
-150 -23 -84 -22 -164 -41 -178 -44 -14 -3 -38 -9 -55 -14 -28 -9 -70 -19
-103 -26 -80 -16 302 105 433 137 43 11 68 27 60 39 -6 9 -49 -1 -220 -54
-274 -85 -317 -98 -320 -94 -2 2 47 21 108 42 175 61 390 136 414 146 15 6 21
15 17 25 -5 11 -10 12 -26 4 -12 -6 -33 -15 -47 -19 -14 -5 -105 -36 -201 -70
-96 -34 -199 -71 -229 -81 -124 -43 -24 1 227 102 177 71 268 112 270 123 5
21 1 20 -98 -21z"/>
<path d="M3512 5408 c3 -7 47 -28 99 -46 277 -99 376 -133 393 -137 29 -7 34
-18 6 -13 -14 3 -101 29 -195 58 -250 77 -298 90 -304 85 -15 -15 49 -40 287
-110 144 -43 261 -80 259 -82 -2 -1 -39 6 -83 18 -43 11 -113 29 -154 39 -41
10 -113 28 -160 40 -47 12 -93 23 -103 25 -9 2 -21 6 -26 10 -13 7 -22 -8 -13
-21 4 -6 63 -24 132 -41 69 -17 190 -48 269 -68 101 -26 147 -33 154 -26 6 6
7 11 3 11 -5 0 -3 6 3 14 10 12 7 18 -16 30 -15 8 -23 15 -18 15 6 1 17 -3 25
-8 8 -6 18 -7 23 -4 14 8 -13 31 -51 43 -20 6 -46 15 -57 20 -11 5 -78 29
-150 54 -71 24 -169 58 -217 75 -97 34 -112 37 -106 19z"/>
<path d="M3527 5167 c-4 -11 13 -17 81 -26 48 -7 107 -16 132 -21 25 -5 61
-12 80 -14 19 -3 46 -8 59 -10 13 -3 49 -8 80 -12 31 -3 58 -8 60 -10 9 -9
-73 -2 -241 19 -192 25 -236 27 -240 12 -3 -10 46 -19 162 -31 35 -3 73 -8 84
-10 11 -2 52 -6 91 -10 38 -3 77 -10 85 -15 14 -8 -5 -7 -155 6 -22 2 -91 7
-153 10 -101 7 -112 6 -106 -9 3 -9 18 -16 33 -17 44 0 185 -10 211 -14 14 -2
51 -4 83 -4 31 -1 57 -5 57 -10 0 -4 -44 -6 -97 -4 -287 10 -274 10 -271 -6 4
-17 9 -18 256 -22 83 -1 152 -6 152 -9 0 -4 -21 -7 -47 -7 -341 -3 -355 -3
-350 -15 3 -10 57 -13 223 -13 120 0 228 2 238 6 17 5 20 16 21 70 0 35 4 69
8 75 4 7 0 15 -8 18 -13 5 -165 32 -230 40 -11 2 -33 6 -50 9 -16 4 -48 9 -70
12 -23 3 -50 7 -62 9 -84 17 -110 17 -116 3z m508 -138 c-5 -6 -55 0 -55 7 0
3 13 3 29 2 16 -1 28 -5 26 -9z m-55 -31 c0 -4 -9 -8 -20 -8 -11 0 -20 4 -20
8 0 4 9 8 20 8 11 0 20 -4 20 -8z m37 -4 c-3 -3 -12 -4 -19 -1 -8 3 -5 6 6 6
11 1 17 -2 13 -5z"/>
<path d="M5845 5143 c-104 -17 -210 -35 -234 -38 -25 -3 -48 -8 -53 -11 -14
-9 -9 -24 10 -25 10 0 12 -3 5 -6 -7 -2 -13 -18 -13 -34 0 -16 5 -29 13 -29 8
0 7 -4 -3 -11 -11 -8 -12 -12 -2 -16 6 -2 12 -9 12 -14 0 -6 -4 -7 -10 -4 -5
3 -10 -1 -10 -9 0 -10 9 -16 23 -17 12 0 119 -3 238 -5 189 -4 217 -3 222 11
6 13 -11 15 -121 16 -70 1 -142 0 -159 -1 -18 -1 -33 3 -33 8 0 5 42 10 93 11
84 2 211 7 230 10 4 1 7 7 7 14 0 10 -18 12 -67 10 -266 -9 -323 -10 -323 -4
0 4 24 8 53 10 28 1 70 4 92 6 22 2 85 7 140 11 108 6 115 8 115 30 0 8 -3 13
-8 10 -7 -4 -83 -11 -247 -22 -49 -3 -105 -7 -123 -9 -19 -1 -30 1 -25 5 4 5
40 11 78 15 39 3 83 8 99 10 16 2 57 6 90 10 34 3 70 7 81 10 11 2 30 4 43 4
15 1 22 7 22 22 0 12 -4 17 -11 13 -6 -3 -27 -8 -47 -10 -65 -6 -393 -45 -414
-49 -12 -3 -18 -1 -14 2 7 7 13 9 86 19 25 3 54 8 65 10 11 2 61 11 110 19 50
8 101 17 115 19 14 3 46 8 73 12 30 4 47 12 47 20 0 18 -12 17 -245 -23z
m-255 -113 c0 -5 -5 -10 -11 -10 -5 0 -7 5 -4 10 3 6 8 10 11 10 2 0 4 -4 4
-10z m53 3 c-7 -2 -21 -2 -30 0 -10 3 -4 5 12 5 17 0 24 -2 18 -5z m17 -33 c0
-5 -17 -9 -37 -9 l-38 2 35 7 c19 4 36 8 38 9 1 0 2 -3 2 -9z m10 -41 c0 -4
-13 -6 -29 -5 -16 0 -28 3 -26 6 5 8 55 7 55 -1z m50 -1 c0 -3 -9 -6 -20 -5
-11 1 -20 5 -20 9 0 3 9 6 20 5 11 -1 20 -5 20 -9z"/>
</g>
</svg>
